<svg width="484" height="88" viewBox="0 0 484 88" fill="none" xmlns="http://www.w3.org/2000/svg">
<path d="M123.56 63V31.256H131.112L131.816 36.568H132.072C133.053 34.5627 134.419 33.048 136.168 32.024C137.917 31 139.944 30.488 142.248 30.488C143.827 30.488 145.277 30.7013 146.6 31.128C147.965 31.5547 149.16 32.2373 150.184 33.176C151.208 34.072 152.061 35.2667 152.744 36.76H153C154.195 34.7973 155.667 33.2613 157.416 32.152C159.208 31.0427 161.469 30.488 164.2 30.488C166.632 30.488 168.744 31.064 170.536 32.216C172.328 33.3253 173.693 34.968 174.632 37.144C175.613 39.32 176.104 42.008 176.104 45.208V63H167.528V45.976C167.528 43.3307 167.016 41.304 165.992 39.896C164.968 38.488 163.368 37.784 161.192 37.784C159.741 37.784 158.504 38.104 157.48 38.744C156.456 39.3413 155.645 40.2587 155.048 41.496C154.451 42.6907 154.152 44.184 154.152 45.976V63H145.576V45.976C145.576 43.3307 145.064 41.304 144.04 39.896C143.016 38.488 141.395 37.784 139.176 37.784C137.896 37.784 136.723 38.1467 135.656 38.872C134.589 39.5547 133.736 40.5573 133.096 41.88C132.499 43.16 132.2 44.7387 132.2 46.616V63H123.56ZM185.122 75.8L192.354 59.416H190.562L177.57 31.256H186.978L196.13 51.864H196.386L204.578 31.256H213.794L194.274 75.8H185.122ZM228.435 63.768C225.619 63.768 223.123 63.2987 220.947 62.36C218.813 61.4213 217.085 60.1413 215.763 58.52C214.483 56.856 213.736 54.9787 213.523 52.888H222.163C222.333 53.656 222.675 54.3813 223.187 55.064C223.699 55.7467 224.381 56.3013 225.235 56.728C226.131 57.112 227.155 57.304 228.307 57.304C229.501 57.304 230.461 57.1547 231.187 56.856C231.912 56.5147 232.445 56.088 232.787 55.576C233.171 55.064 233.363 54.5093 233.363 53.912C233.363 53.1013 233.085 52.4827 232.531 52.056C232.019 51.5867 231.251 51.1813 230.227 50.84C229.245 50.4987 228.072 50.136 226.707 49.752C225.299 49.368 223.869 48.9627 222.419 48.536C221.011 48.1093 219.709 47.576 218.515 46.936C217.32 46.2533 216.36 45.4 215.635 44.376C214.952 43.3093 214.611 41.9867 214.611 40.408C214.611 38.5733 215.123 36.9093 216.147 35.416C217.171 33.9227 218.643 32.728 220.562 31.832C222.525 30.936 224.851 30.488 227.539 30.488C231.379 30.488 234.429 31.3627 236.691 33.112C238.995 34.8613 240.339 37.272 240.723 40.344H232.595C232.381 39.2773 231.827 38.4453 230.931 37.848C230.077 37.2507 228.947 36.952 227.539 36.952C226.045 36.952 224.893 37.2507 224.083 37.848C223.315 38.4027 222.931 39.0853 222.931 39.896C222.931 40.4933 223.187 41.0053 223.699 41.432C224.211 41.816 224.957 42.1787 225.939 42.52C226.963 42.8187 228.179 43.16 229.587 43.544C231.848 44.1413 233.917 44.7813 235.795 45.464C237.672 46.1467 239.165 47.0853 240.275 48.28C241.384 49.432 241.939 51.0747 241.939 53.208C241.981 55.256 241.448 57.0693 240.339 58.648C239.229 60.2267 237.672 61.4853 235.667 62.424C233.661 63.32 231.251 63.768 228.435 63.768ZM246.772 63V31.256H255.412V63H246.772ZM251.124 27.224C249.545 27.224 248.244 26.776 247.22 25.88C246.238 24.9413 245.748 23.768 245.748 22.36C245.748 20.952 246.238 19.7787 247.22 18.84C248.244 17.9013 249.545 17.432 251.124 17.432C252.702 17.432 253.982 17.9013 254.964 18.84C255.945 19.7787 256.436 20.952 256.436 22.36C256.436 23.7253 255.945 24.8773 254.964 25.816C253.982 26.7547 252.702 27.224 251.124 27.224ZM261.56 63V31.256H269.112L269.816 36.568H270.072C271.053 34.5627 272.419 33.048 274.168 32.024C275.917 31 277.944 30.488 280.248 30.488C281.827 30.488 283.277 30.7013 284.6 31.128C285.965 31.5547 287.16 32.2373 288.184 33.176C289.208 34.072 290.061 35.2667 290.744 36.76H291C292.195 34.7973 293.667 33.2613 295.416 32.152C297.208 31.0427 299.469 30.488 302.2 30.488C304.632 30.488 306.744 31.064 308.536 32.216C310.328 33.3253 311.693 34.968 312.632 37.144C313.613 39.32 314.104 42.008 314.104 45.208V63H305.528V45.976C305.528 43.3307 305.016 41.304 303.992 39.896C302.968 38.488 301.368 37.784 299.192 37.784C297.741 37.784 296.504 38.104 295.48 38.744C294.456 39.3413 293.645 40.2587 293.048 41.496C292.451 42.6907 292.152 44.184 292.152 45.976V63H283.576V45.976C283.576 43.3307 283.064 41.304 282.04 39.896C281.016 38.488 279.395 37.784 277.176 37.784C275.896 37.784 274.723 38.1467 273.656 38.872C272.589 39.5547 271.736 40.5573 271.096 41.88C270.499 43.16 270.2 44.7387 270.2 46.616V63H261.56ZM333.399 63C331.138 63 329.154 62.6587 327.447 61.976C325.783 61.2507 324.482 60.0773 323.543 58.456C322.604 56.792 322.135 54.5307 322.135 51.672V38.168H316.695V31.256H322.135L323.095 22.616H330.775V31.256H339.223V38.168H330.775V51.8C330.775 53.336 331.095 54.4027 331.735 55C332.375 55.5547 333.463 55.832 334.999 55.832H339.031V63H333.399ZM342.123 63V31.256H349.483L350.251 38.232H350.507C351.445 35.9707 352.469 34.3067 353.579 33.24C354.688 32.1307 355.947 31.4053 357.355 31.064C358.805 30.68 360.427 30.488 362.219 30.488V39.64H359.851C358.4 39.64 357.099 39.8107 355.947 40.152C354.837 40.4507 353.899 40.9627 353.131 41.688C352.363 42.3707 351.765 43.288 351.339 44.44C350.955 45.592 350.763 46.9787 350.763 48.6V63H342.123ZM375.491 63.768C372.973 63.768 370.883 63.3413 369.219 62.488C367.597 61.6347 366.402 60.4827 365.635 59.032C364.867 57.5813 364.483 55.9813 364.483 54.232C364.483 52.2693 364.973 50.5413 365.955 49.048C366.979 47.5547 368.515 46.4027 370.562 45.592C372.611 44.7387 375.192 44.312 378.307 44.312H386.307C386.307 42.7333 386.072 41.432 385.603 40.408C385.176 39.384 384.493 38.616 383.555 38.104C382.659 37.592 381.507 37.336 380.099 37.336C378.435 37.336 377.005 37.72 375.811 38.488C374.659 39.2133 373.933 40.3653 373.635 41.944H365.251C365.507 39.5973 366.275 37.5707 367.555 35.864C368.877 34.1573 370.605 32.8347 372.739 31.896C374.915 30.9573 377.368 30.488 380.099 30.488C383.171 30.488 385.816 31 388.035 32.024C390.253 33.0053 391.96 34.4773 393.155 36.44C394.349 38.36 394.947 40.7067 394.947 43.48V63H387.779L386.883 58.072H386.627C385.944 59.0107 385.197 59.8427 384.387 60.568C383.619 61.2933 382.765 61.8907 381.827 62.36C380.888 62.8293 379.885 63.1707 378.819 63.384C377.752 63.64 376.643 63.768 375.491 63.768ZM378.307 57.112C379.501 57.112 380.525 56.92 381.378 56.536C382.275 56.1093 383.043 55.5547 383.683 54.872C384.323 54.1893 384.813 53.4 385.155 52.504C385.539 51.5653 385.795 50.6053 385.923 49.624H379.267C377.944 49.624 376.856 49.7947 376.003 50.136C375.192 50.4347 374.595 50.8827 374.211 51.48C373.827 52.0347 373.635 52.696 373.635 53.464C373.635 54.232 373.827 54.8933 374.211 55.448C374.595 56.0027 375.149 56.4293 375.875 56.728C376.6 56.984 377.411 57.112 378.307 57.112ZM407.31 63L397.07 31.256H406.158L413.646 57.304H413.966L421.518 31.256H430.542L420.302 63H407.31ZM448.176 63.768C444.933 63.768 442.053 63.0853 439.536 61.72C437.061 60.3547 435.12 58.4347 433.712 55.96C432.304 53.4853 431.6 50.648 431.6 47.448C431.6 44.12 432.283 41.1973 433.648 38.68C435.056 36.12 436.997 34.1147 439.472 32.664C441.989 31.2133 444.891 30.488 448.176 30.488C451.376 30.488 454.171 31.1707 456.56 32.536C458.949 33.9013 460.827 35.7787 462.192 38.168C463.557 40.5147 464.24 43.1813 464.24 46.168C464.24 46.5947 464.219 47.0853 464.176 47.64C464.176 48.152 464.155 48.6853 464.112 49.24H437.744V43.928H455.472C455.344 41.9227 454.597 40.3227 453.232 39.128C451.909 37.9333 450.245 37.336 448.24 37.336C446.747 37.336 445.381 37.6773 444.144 38.36C442.907 39 441.925 40.0027 441.2 41.368C440.475 42.6907 440.112 44.376 440.112 46.424V48.28C440.112 50.0293 440.453 51.544 441.136 52.824C441.819 54.0613 442.757 55.0213 443.952 55.704C445.189 56.3867 446.576 56.728 448.112 56.728C449.691 56.728 451.013 56.3867 452.08 55.704C453.147 54.9787 453.957 54.0613 454.512 52.952H463.28C462.683 54.9573 461.68 56.792 460.272 58.456C458.864 60.0773 457.136 61.3787 455.088 62.36C453.04 63.2987 450.736 63.768 448.176 63.768ZM468.38 63V18.2H477.02V63H468.38Z" fill="#FF5000"/>
<path fill-rule="evenodd" clip-rule="evenodd" d="M102.074 83H13.6926C12.5552 83 11.4644 82.5482 10.6601 81.7439L1.25612 72.3399C0.451839 71.5356 0 70.4448 0 69.3074V22.8529C0 20.4843 1.9201 18.5642 4.28866 18.5642H32.3426C34.7112 18.5642 36.6313 16.6441 36.6313 14.2756V8.28866C36.6313 5.9201 38.5514 4 40.9199 4H66.3259C68.6944 4 70.6145 5.9201 70.6145 8.28866V14.2756C70.6145 16.6441 72.5346 18.5642 74.9032 18.5642H102.074C104.443 18.5642 106.363 20.4843 106.363 22.8529V78.7113C106.363 81.0799 104.443 83 102.074 83ZM46.3408 11.0613H59.581C61.2872 11.0613 62.6704 12.4445 62.6704 14.1507C62.6704 15.8569 61.2872 17.2401 59.581 17.2401H46.3408C44.6346 17.2401 43.2514 15.8569 43.2514 14.1507C43.2514 12.4445 44.6346 11.0613 46.3408 11.0613Z" fill="#FF5000"/>
<path d="M81.7585 55.0076C79.7979 55.0076 78.2085 56.5971 78.2085 58.5577M61.2119 57.9986H69.4289C70.4336 57.9986 71.4052 57.6397 72.1686 56.9867L72.8225 56.4273C73.7585 55.6266 74.2973 54.4565 74.2973 53.2247V50.7534V46.6442H77.695H81.4155V50.7534V54.6794C79.426 54.8532 77.8654 56.5232 77.8654 58.5577V64.2072H64.7402C62.7916 64.2072 61.2119 62.6275 61.2119 60.6789V57.9986ZM77.3531 45.958H74.0841L72.1843 44.2789C71.414 43.598 70.4213 43.2221 69.3932 43.2221H61.2119V40.2485C61.2119 38.2998 62.7916 36.7202 64.7402 36.7202H77.3838L77.3531 45.958ZM78.0393 45.958L78.07 36.7202H90.7158C92.6645 36.7202 94.2441 38.2998 94.2441 40.2485V43.5742H85.9666C84.9583 43.5742 83.9835 43.9357 83.219 44.593L81.6313 45.958H78.0393ZM85.9666 44.2604H94.2441V50.4103H82.1016V46.4586L83.6663 45.1133C84.3064 44.563 85.1225 44.2604 85.9666 44.2604ZM82.1016 51.0965H94.2441V57.3089L86.0835 57.3119C85.1754 57.3122 84.3021 56.9624 83.6453 56.3352L82.1016 54.8609V51.0965ZM86.0837 57.998L94.2441 57.9951V60.6789C94.2441 62.6275 92.6645 64.2072 90.7158 64.2072H78.5516V58.5577C78.5516 56.8316 79.9152 55.4241 81.6239 55.3535L83.1714 56.8314C83.9559 57.5806 84.999 57.9984 86.0837 57.998ZM69.4289 57.3124H61.2119V51.0965H73.6111V53.2247C73.6111 54.2559 73.16 55.2355 72.3764 55.9059L71.7225 56.4652C71.0834 57.012 70.27 57.3124 69.4289 57.3124ZM61.2119 50.4103V43.9083H69.3932C70.254 43.9083 71.085 44.223 71.7299 44.793L73.6111 46.4558V50.4103H61.2119Z" fill="#FBDA82"/>
<path d="M81.7585 55.0076C79.7979 55.0076 78.2085 56.5971 78.2085 58.5577M61.2119 57.9986H69.4289C70.4336 57.9986 71.4052 57.6397 72.1686 56.9867L72.8225 56.4273C73.7585 55.6266 74.2973 54.4565 74.2973 53.2247V50.7534V46.6442H77.695H81.4155V50.7534V54.6794C79.426 54.8532 77.8654 56.5232 77.8654 58.5577V64.2072H64.7402C62.7916 64.2072 61.2119 62.6275 61.2119 60.6789V57.9986ZM77.3531 45.958H74.0841L72.1843 44.2789C71.414 43.598 70.4213 43.2221 69.3932 43.2221H61.2119V40.2485C61.2119 38.2998 62.7916 36.7202 64.7402 36.7202H77.3838L77.3531 45.958ZM78.0393 45.958L78.07 36.7202H90.7158C92.6645 36.7202 94.2441 38.2998 94.2441 40.2485V43.5742H85.9666C84.9583 43.5742 83.9835 43.9357 83.219 44.593L81.6313 45.958H78.0393ZM85.9666 44.2604H94.2441V50.4103H82.1016V46.4586L83.6663 45.1133C84.3064 44.563 85.1225 44.2604 85.9666 44.2604ZM82.1016 51.0965H94.2441V57.3089L86.0835 57.3119C85.1754 57.3122 84.3021 56.9624 83.6453 56.3352L82.1016 54.8609V51.0965ZM86.0837 57.998L94.2441 57.9951V60.6789C94.2441 62.6275 92.6645 64.2072 90.7158 64.2072H78.5516V58.5577C78.5516 56.8316 79.9152 55.4241 81.6239 55.3535L83.1714 56.8314C83.9559 57.5806 84.999 57.9984 86.0837 57.998ZM69.4289 57.3124H61.2119V51.0965H73.6111V53.2247C73.6111 54.2559 73.16 55.2355 72.3764 55.9059L71.7225 56.4652C71.0834 57.012 70.27 57.3124 69.4289 57.3124ZM61.2119 50.4103V43.9083H69.3932C70.254 43.9083 71.085 44.223 71.7299 44.793L73.6111 46.4558V50.4103H61.2119Z" stroke="#494949" stroke-width="0.686186"/>
<path d="M81.7585 55.0076C79.7979 55.0076 78.2085 56.5971 78.2085 58.5577M61.2119 57.9986H69.4289C70.4336 57.9986 71.4052 57.6397 72.1686 56.9867L72.8225 56.4273C73.7585 55.6266 74.2973 54.4565 74.2973 53.2247V50.7534V46.6442H77.695H81.4155V50.7534V54.6794C79.426 54.8532 77.8654 56.5232 77.8654 58.5577V64.2072H64.7402C62.7916 64.2072 61.2119 62.6275 61.2119 60.6789V57.9986ZM77.3531 45.958H74.0841L72.1843 44.2789C71.414 43.598 70.4213 43.2221 69.3932 43.2221H61.2119V40.2485C61.2119 38.2998 62.7916 36.7202 64.7402 36.7202H77.3838L77.3531 45.958ZM78.0393 45.958L78.07 36.7202H90.7158C92.6645 36.7202 94.2441 38.2998 94.2441 40.2485V43.5742H85.9666C84.9583 43.5742 83.9835 43.9357 83.219 44.593L81.6313 45.958H78.0393ZM85.9666 44.2604H94.2441V50.4103H82.1016V46.4586L83.6663 45.1133C84.3064 44.563 85.1225 44.2604 85.9666 44.2604ZM82.1016 51.0965H94.2441V57.3089L86.0835 57.3119C85.1754 57.3122 84.3021 56.9624 83.6453 56.3352L82.1016 54.8609V51.0965ZM86.0837 57.998L94.2441 57.9951V60.6789C94.2441 62.6275 92.6645 64.2072 90.7158 64.2072H78.5516V58.5577C78.5516 56.8316 79.9152 55.4241 81.6239 55.3535L83.1714 56.8314C83.9559 57.5806 84.999 57.9984 86.0837 57.998ZM69.4289 57.3124H61.2119V51.0965H73.6111V53.2247C73.6111 54.2559 73.16 55.2355 72.3764 55.9059L71.7225 56.4652C71.0834 57.012 70.27 57.3124 69.4289 57.3124ZM61.2119 50.4103V43.9083H69.3932C70.254 43.9083 71.085 44.223 71.7299 44.793L73.6111 46.4558V50.4103H61.2119Z" stroke="url(#paint0_radial_246_139)" stroke-opacity="0.2" stroke-width="0.686186"/>
<path d="M81.7585 55.0076C79.7979 55.0076 78.2085 56.5971 78.2085 58.5577M61.2119 57.9986H69.4289C70.4336 57.9986 71.4052 57.6397 72.1686 56.9867L72.8225 56.4273C73.7585 55.6266 74.2973 54.4565 74.2973 53.2247V50.7534V46.6442H77.695H81.4155V50.7534V54.6794C79.426 54.8532 77.8654 56.5232 77.8654 58.5577V64.2072H64.7402C62.7916 64.2072 61.2119 62.6275 61.2119 60.6789V57.9986ZM77.3531 45.958H74.0841L72.1844 44.2789C71.414 43.598 70.4213 43.2221 69.3932 43.2221H61.2119V40.2485C61.2119 38.2998 62.7916 36.7202 64.7402 36.7202H77.3838L77.3531 45.958ZM78.0393 45.958L78.07 36.7202H90.7158C92.6645 36.7202 94.2441 38.2998 94.2441 40.2485V43.5742H85.9666C84.9583 43.5742 83.9835 43.9357 83.219 44.593L81.6313 45.958H78.0393ZM85.9666 44.2604H94.2441V50.4103H82.1016V46.4586L83.6663 45.1133C84.3064 44.563 85.1225 44.2604 85.9666 44.2604ZM82.1016 51.0965H94.2441V57.3089L86.0835 57.3119C85.1754 57.3122 84.3021 56.9624 83.6453 56.3352L82.1016 54.8609V51.0965ZM86.0837 57.998L94.2441 57.9951V60.6789C94.2441 62.6275 92.6645 64.2072 90.7158 64.2072H78.5516V58.5577C78.5516 56.8316 79.9152 55.4241 81.6239 55.3535L83.1714 56.8314C83.9559 57.5806 84.999 57.9984 86.0837 57.998ZM69.4289 57.3124H61.2119V51.0965H73.6111V53.2247C73.6111 54.2559 73.16 55.2355 72.3764 55.9059L71.7225 56.4652C71.0834 57.012 70.27 57.3124 69.4289 57.3124ZM61.2119 50.4103V43.9083H69.3932C70.254 43.9083 71.085 44.223 71.7299 44.793L73.6111 46.4558V50.4103H61.2119Z" stroke="#494949" stroke-width="0.686186"/>
<path d="M81.7585 55.0076C79.7979 55.0076 78.2085 56.5971 78.2085 58.5577M61.2119 57.9986H69.4289C70.4336 57.9986 71.4052 57.6397 72.1686 56.9867L72.8225 56.4273C73.7585 55.6266 74.2973 54.4565 74.2973 53.2247V50.7534V46.6442H77.695H81.4155V50.7534V54.6794C79.426 54.8532 77.8654 56.5232 77.8654 58.5577V64.2072H64.7402C62.7916 64.2072 61.2119 62.6275 61.2119 60.6789V57.9986ZM77.3531 45.958H74.0841L72.1844 44.2789C71.414 43.598 70.4213 43.2221 69.3932 43.2221H61.2119V40.2485C61.2119 38.2998 62.7916 36.7202 64.7402 36.7202H77.3838L77.3531 45.958ZM78.0393 45.958L78.07 36.7202H90.7158C92.6645 36.7202 94.2441 38.2998 94.2441 40.2485V43.5742H85.9666C84.9583 43.5742 83.9835 43.9357 83.219 44.593L81.6313 45.958H78.0393ZM85.9666 44.2604H94.2441V50.4103H82.1016V46.4586L83.6663 45.1133C84.3064 44.563 85.1225 44.2604 85.9666 44.2604ZM82.1016 51.0965H94.2441V57.3089L86.0835 57.3119C85.1754 57.3122 84.3021 56.9624 83.6453 56.3352L82.1016 54.8609V51.0965ZM86.0837 57.998L94.2441 57.9951V60.6789C94.2441 62.6275 92.6645 64.2072 90.7158 64.2072H78.5516V58.5577C78.5516 56.8316 79.9152 55.4241 81.6239 55.3535L83.1714 56.8314C83.9559 57.5806 84.999 57.9984 86.0837 57.998ZM69.4289 57.3124H61.2119V51.0965H73.6111V53.2247C73.6111 54.2559 73.16 55.2355 72.3764 55.9059L71.7225 56.4652C71.0834 57.012 70.27 57.3124 69.4289 57.3124ZM61.2119 50.4103V43.9083H69.3932C70.254 43.9083 71.085 44.223 71.7299 44.793L73.6111 46.4558V50.4103H61.2119Z" stroke="url(#paint1_radial_246_139)" stroke-opacity="0.2" stroke-width="0.686186"/>
<defs>
<radialGradient id="paint0_radial_246_139" cx="0" cy="0" r="1" gradientUnits="userSpaceOnUse" gradientTransform="translate(60.8688 37.6975) rotate(45.3165) scale(42.2501 35.3019)">
<stop stop-opacity="0"/>
<stop offset="1" stop-color="white" stop-opacity="0.62"/>
</radialGradient>
<radialGradient id="paint1_radial_246_139" cx="0" cy="0" r="1" gradientUnits="userSpaceOnUse" gradientTransform="translate(60.8688 37.6975) rotate(45.3165) scale(42.2501 35.3019)">
<stop stop-opacity="0"/>
<stop offset="1" stop-color="white" stop-opacity="0.62"/>
</radialGradient>
</defs>
</svg>
